<svg width="148" height="48" viewBox="0 0 148 48" fill="none" xmlns="http://www.w3.org/2000/svg">
<path d="M115.909 37.829C116.152 37.9622 116.322 38.0907 116.405 38.2055C116.492 38.3203 116.533 38.435 116.533 38.5452C116.533 38.6784 116.501 38.8344 116.432 39.0135C116.363 39.1925 116.281 39.367 116.184 39.5369L115.927 39.5552C115.716 39.2981 115.413 39.0732 115.014 38.885C114.614 38.6967 114.187 38.6003 113.733 38.6003C113.572 38.6003 113.398 38.6141 113.205 38.6462C113.012 38.6784 112.838 38.7334 112.668 38.8115C112.502 38.8895 112.365 39.0043 112.254 39.1512C112.144 39.2981 112.089 39.4818 112.089 39.7021C112.089 40.0924 112.264 40.377 112.613 40.5469C112.961 40.7168 113.398 40.8637 113.912 40.9876C114.279 41.0749 114.637 41.1804 114.982 41.309C115.326 41.4375 115.629 41.6028 115.895 41.8048C116.161 42.0068 116.368 42.2593 116.524 42.5669C116.676 42.8745 116.754 43.251 116.754 43.7055C116.754 44.16 116.662 44.5548 116.478 44.89C116.295 45.2251 116.047 45.5098 115.744 45.7347C115.436 45.9597 115.078 46.1341 114.665 46.2489C114.252 46.3637 113.825 46.4234 113.384 46.4234C112.943 46.4234 112.567 46.3912 112.222 46.3224C111.878 46.2535 111.589 46.1709 111.359 46.0745C111.052 45.9505 110.836 45.8265 110.716 45.698C110.593 45.5694 110.533 45.4363 110.533 45.3032C110.533 45.1425 110.574 44.9772 110.661 44.8073C110.749 44.6375 110.859 44.4401 110.992 44.2197C111.079 44.2931 111.199 44.385 111.35 44.4952C111.502 44.6053 111.685 44.7109 111.901 44.8073C112.117 44.9037 112.351 44.9864 112.608 45.0552C112.865 45.1241 113.141 45.1563 113.434 45.1563C113.655 45.1563 113.87 45.1333 114.077 45.092C114.284 45.0507 114.472 44.9772 114.637 44.8808C114.802 44.7844 114.936 44.6467 115.041 44.4722C115.147 44.2977 115.197 44.082 115.197 43.8249C115.197 43.5678 115.142 43.352 115.032 43.1867C114.922 43.0214 114.775 42.8791 114.591 42.7689C114.408 42.6588 114.201 42.5669 113.976 42.5027C113.751 42.4338 113.522 42.3741 113.287 42.3282C112.934 42.2547 112.594 42.1629 112.268 42.0436C111.942 41.9242 111.658 41.7727 111.405 41.5753C111.153 41.3825 110.951 41.1345 110.799 40.8453C110.648 40.5515 110.57 40.198 110.57 39.7848C110.57 39.3716 110.657 39.0273 110.827 38.7151C110.997 38.4029 111.231 38.1504 111.524 37.9484C111.818 37.7464 112.153 37.5949 112.53 37.4893C112.906 37.3837 113.297 37.3332 113.701 37.3332C114.169 37.3332 114.596 37.3837 114.982 37.4801C115.367 37.5765 115.679 37.6959 115.913 37.829H115.909Z" fill="#706F6F"/>
<path d="M125.073 44.1646C125.073 44.4584 125.086 44.688 125.109 44.8532C125.132 45.0185 125.178 45.1425 125.247 45.2205C125.316 45.2986 125.408 45.3537 125.522 45.3766C125.637 45.3996 125.789 45.4133 125.972 45.4133V46.1479C125.862 46.1846 125.729 46.2168 125.568 46.2397C125.408 46.2627 125.242 46.2765 125.073 46.2765C124.687 46.2765 124.352 46.1984 124.067 46.0469C123.782 45.8954 123.613 45.6199 123.567 45.2297C123.259 45.5373 122.892 45.7944 122.465 46.0102C122.038 46.226 121.473 46.3315 120.775 46.3315C120.459 46.3315 120.137 46.2948 119.811 46.2214C119.485 46.1479 119.191 46.0148 118.93 45.8174C118.668 45.6199 118.448 45.3583 118.278 45.0277C118.108 44.6972 118.021 44.2748 118.021 43.7606C118.021 43.1224 118.181 42.6037 118.507 42.1997C118.833 41.7956 119.233 41.4789 119.71 41.2447C120.188 41.0106 120.697 40.8545 121.244 40.7673C121.79 40.68 122.286 40.6341 122.74 40.6203H123.126C123.273 40.6203 123.401 40.6249 123.512 40.6387V40.3633C123.512 39.8123 123.378 39.3945 123.117 39.1053C122.855 38.8161 122.35 38.6738 121.602 38.6738C121.051 38.6738 120.587 38.7426 120.206 38.885C119.825 39.0273 119.458 39.2201 119.104 39.4634H118.921C118.824 39.3027 118.742 39.1329 118.673 38.9492C118.604 38.7656 118.572 38.6187 118.572 38.5085C118.572 38.3478 118.668 38.2009 118.865 38.0586C119.063 37.9162 119.315 37.7923 119.628 37.6821C119.94 37.5719 120.284 37.4847 120.665 37.425C121.046 37.3653 121.418 37.3332 121.785 37.3332C122.41 37.3332 122.933 37.4021 123.351 37.5352C123.769 37.6683 124.108 37.8703 124.37 38.1412C124.632 38.4121 124.811 38.7472 124.916 39.1512C125.022 39.5552 125.073 40.0189 125.073 40.5469V44.1646ZM123.53 41.814H122.997C122.607 41.814 122.208 41.837 121.804 41.8875C121.4 41.938 121.032 42.0298 120.702 42.1629C120.371 42.2961 120.1 42.4843 119.894 42.723C119.687 42.9618 119.582 43.2785 119.582 43.6688C119.582 44.036 119.692 44.362 119.912 44.6421C120.133 44.9221 120.541 45.0644 121.143 45.0644C121.459 45.0644 121.762 45.0185 122.052 44.9267C122.341 44.8349 122.593 44.7201 122.814 44.587C123.034 44.4538 123.209 44.3069 123.337 44.1462C123.466 43.9855 123.53 43.834 123.53 43.6871V41.814Z" fill="#706F6F"/>
<path d="M128.961 44.4401C128.961 44.6237 128.966 44.7798 128.979 44.9083C128.993 45.0369 129.025 45.1425 129.08 45.2297C129.136 45.3169 129.223 45.3812 129.338 45.4225C129.452 45.4638 129.622 45.4868 129.843 45.4868V46.1479C129.732 46.1846 129.581 46.2168 129.393 46.2397C129.204 46.2627 129.016 46.2765 128.833 46.2765C128.479 46.2765 128.204 46.2214 128.015 46.1112C127.827 46.001 127.685 45.8541 127.593 45.6704C127.501 45.4868 127.446 45.2802 127.428 45.0552C127.409 44.8303 127.4 44.6053 127.4 44.385V33.1462H127.51C127.533 33.1462 127.57 33.1462 127.611 33.137C127.653 33.1324 127.694 33.1278 127.731 33.1278C128.075 33.1278 128.364 33.2151 128.603 33.3941C128.842 33.5732 128.961 33.8945 128.961 34.3582V44.4401Z" fill="#706F6F"/>
<path d="M134.677 45.1012C135.007 45.1012 135.31 45.0552 135.586 44.9634C135.861 44.8716 136.095 44.7568 136.293 44.6237C136.49 44.4906 136.642 44.3436 136.752 44.1921C136.862 44.0406 136.917 43.9029 136.917 43.7789V37.448H137.027C137.05 37.448 137.087 37.448 137.128 37.4388C137.17 37.4296 137.211 37.4296 137.248 37.4296C137.592 37.4296 137.881 37.5168 138.12 37.6959C138.359 37.8749 138.478 38.1963 138.478 38.66V46.1709H136.917V45.3766C136.674 45.6567 136.33 45.9 135.889 46.1204C135.448 46.3407 134.879 46.4463 134.181 46.4463C133.483 46.4463 132.918 46.3361 132.528 46.1158C132.138 45.8954 131.844 45.6153 131.656 45.271C131.468 44.9267 131.353 44.5502 131.316 44.1416C131.279 43.733 131.261 43.3382 131.261 42.9572V37.448H131.371C131.394 37.448 131.431 37.448 131.472 37.4388C131.514 37.4296 131.555 37.4296 131.592 37.4296C131.936 37.4296 132.225 37.5168 132.464 37.6867C132.703 37.8566 132.822 38.1779 132.822 38.6416V42.9663C132.822 43.4438 132.854 43.8249 132.923 44.1095C132.992 44.3941 133.13 44.6053 133.336 44.7522C133.52 44.8854 133.717 44.9818 133.933 45.0277C134.149 45.0782 134.397 45.1012 134.677 45.1012Z" fill="#706F6F"/>
<path d="M147.931 46.1663H146.407V45.4179C146.31 45.5189 146.187 45.6291 146.04 45.7531C145.893 45.877 145.718 45.9872 145.516 46.0882C145.314 46.1892 145.085 46.2719 144.828 46.3407C144.571 46.4096 144.29 46.4417 143.983 46.4417C143.505 46.4417 143.046 46.3637 142.606 46.203C142.165 46.0423 141.775 45.7898 141.439 45.4409C141.104 45.092 140.838 44.6329 140.641 44.0636C140.443 43.4943 140.347 42.8011 140.347 41.9793C140.347 41.1575 140.448 40.4734 140.65 39.8858C140.852 39.2981 141.123 38.8161 141.458 38.4442C141.793 38.0723 142.188 37.7923 142.633 37.6087C143.078 37.425 143.542 37.3332 144.02 37.3332C144.571 37.3332 145.039 37.425 145.424 37.6087C145.81 37.7923 146.127 37.9989 146.37 38.233V33.1462H146.48C146.503 33.1462 146.54 33.1462 146.581 33.137C146.623 33.1324 146.664 33.1278 146.701 33.1278C147.045 33.1278 147.334 33.2151 147.573 33.3849C147.812 33.5548 147.931 33.8762 147.931 34.3399V46.1663ZM141.981 41.7865C141.981 42.2639 142.018 42.7001 142.091 43.1041C142.165 43.5081 142.293 43.857 142.477 44.1554C142.661 44.4538 142.904 44.688 143.207 44.8532C143.51 45.0185 143.882 45.1012 144.323 45.1012C144.616 45.1012 144.892 45.0644 145.144 44.991C145.397 44.9175 145.613 44.8257 145.801 44.7155C145.985 44.6053 146.127 44.4768 146.223 44.3299C146.32 44.183 146.37 44.036 146.37 43.8891V39.6057H146.389C146.315 39.5323 146.219 39.4405 146.104 39.3303C145.989 39.2201 145.838 39.1145 145.663 39.0181C145.484 38.9217 145.278 38.839 145.043 38.7702C144.809 38.7013 144.548 38.6692 144.249 38.6692C143.547 38.6692 142.996 38.9309 142.592 39.4542C142.188 39.9776 141.981 40.7535 141.981 41.7819V41.7865Z" fill="#706F6F"/>
<path d="M12.9971 21.2739C11.7346 20.8607 10.8347 19.7359 10.7383 18.4091V18.3861C10.6281 17.6332 10.5776 16.8849 10.5776 16.1411C10.5776 12.5418 11.7208 9.1215 13.8877 6.25213L13.9107 6.22458L13.9382 6.20162C13.9474 6.18785 13.952 6.15571 13.9612 6.15112L14.0117 6.07767V6.09603C15.7241 3.91531 18.2721 2.67574 21.0221 2.67574C22.6979 2.67574 24.2634 3.13943 25.5994 3.95204C22.9825 2.15696 19.7963 1.09644 16.3761 1.09644C12.6849 1.09644 9.28296 2.32682 6.53755 4.40195C6.48705 4.43409 6.43195 4.47541 6.39064 4.50296C6.34014 4.53968 6.30341 4.56723 6.26668 4.59478C4.23746 6.22917 2.94739 8.6119 2.94739 11.2793C2.94739 13.9466 4.12727 16.109 6.01876 17.725C7.9883 19.4237 10.371 20.677 12.9971 21.2831V21.2739Z" fill="url(#paint0_radial_412_496)"/>
<path d="M21.0268 2.67114C18.2768 2.67114 15.7242 3.90612 14.0163 6.09144V6.07307L13.9658 6.14653L13.9521 6.18326C13.9521 6.18326 13.9337 6.21998 13.9153 6.22457L13.8924 6.25212C11.7254 9.12149 10.5823 12.5418 10.5823 16.1411C10.5823 16.8849 10.6282 17.6332 10.743 18.3861V18.4091C10.8531 19.869 11.9274 21.081 13.3644 21.384L13.3874 21.3978C14.4938 21.6228 15.614 21.7421 16.7342 21.7421C19.7459 21.7421 22.7071 20.9204 25.2643 19.3548L25.2781 19.3456C28.1291 17.7847 29.9104 14.796 29.9104 11.5501C29.9104 6.65154 25.9162 2.67573 21.0268 2.67573V2.67114Z" fill="white"/>
<path d="M25.5857 3.93827C25.5857 3.93827 25.5994 3.93828 25.5994 3.95205C24.2635 3.13944 22.6979 2.67575 21.0222 2.67575C18.2722 2.67575 15.7196 3.91073 14.0118 6.09604V6.07768C14.0118 6.07768 13.5756 6.70665 13.5343 6.75715C14.9713 5.20998 17.2806 4.52133 19.3832 4.52133C23.4692 4.52133 28.0464 8.09313 28.0464 13.2442C28.0464 14.8465 27.7618 17.7021 25.3148 19.3181C28.2347 17.7664 29.9012 14.5848 29.9012 11.5547C29.9012 8.31809 28.1566 5.51299 25.5811 3.94287L25.5857 3.93827Z" fill="url(#paint1_radial_412_496)"/>
<path d="M6.39139 4.50313C6.39139 4.50313 6.4007 4.50313 6.4007 4.48917C6.37743 4.51243 6.35882 4.53104 6.34021 4.545C6.34952 4.53104 6.37743 4.51708 6.39139 4.50313Z" fill="url(#paint2_radial_412_496)"/>
<path d="M27.1695 5.15489C28.8544 6.77092 29.9058 9.03887 29.9058 11.5501C29.9058 11.743 29.892 11.945 29.8782 12.1424C29.8736 12.1975 29.8736 12.2663 29.8553 12.3352C29.8461 12.4546 29.8323 12.5831 29.8185 12.7209C29.8048 12.7989 29.8002 12.8769 29.7818 12.9504C29.7634 13.0698 29.7588 13.1708 29.7267 13.2855C29.7129 13.359 29.69 13.4462 29.6716 13.5289C29.6578 13.6345 29.6303 13.7538 29.6028 13.8456C29.5798 13.9329 29.5431 14.0155 29.5293 14.0982C29.4972 14.2037 29.4696 14.3002 29.4283 14.4057C29.4008 14.4838 29.3686 14.5573 29.3411 14.6445C29.2997 14.7409 29.2676 14.8419 29.2309 14.9383C29.2033 15.0072 29.1528 15.0944 29.1207 15.177C29.0794 15.2643 29.0381 15.3607 29.0013 15.4525C28.9554 15.5351 28.9095 15.6132 28.8728 15.7004C28.8361 15.783 28.781 15.8703 28.7351 15.9575C28.6846 16.031 28.6295 16.1136 28.5836 16.1962C28.5376 16.2697 28.478 16.3569 28.4229 16.4396C28.3815 16.5038 28.3356 16.5911 28.276 16.6599C28.2163 16.7472 28.1612 16.8252 28.0923 16.9033C28.0464 16.9721 27.9821 17.0593 27.9316 17.1144C27.8811 17.2017 27.8123 17.2705 27.7618 17.344C27.6929 17.4174 27.624 17.4909 27.5689 17.5506C27.5001 17.6194 27.4312 17.6883 27.3486 17.7618C27.2935 17.8215 27.2292 17.8949 27.1695 17.9592C27.0869 18.0235 27.0088 18.0877 26.9492 18.1566C26.8757 18.2255 26.8022 18.2851 26.7242 18.3494C26.6507 18.4183 26.5727 18.478 26.5038 18.5239C26.4212 18.5927 26.3523 18.6524 26.2743 18.7167C26.1274 18.8177 25.9713 18.9141 25.8152 19.0289C25.6407 19.1482 25.4571 19.2493 25.278 19.3503L25.2643 19.3594C22.7025 20.925 19.7459 21.7468 16.7342 21.7468C15.614 21.7468 14.4938 21.6274 13.3874 21.4024L13.3644 21.3887C13.2358 21.3657 13.1211 21.329 12.9879 21.2831H13.0063C12.8318 21.2555 12.6666 21.2188 12.5059 21.1591C12.4416 21.1453 12.3957 21.1453 12.3452 21.1224C12.2029 21.0765 12.056 21.0352 11.909 20.9938C11.831 20.9617 11.7438 20.9433 11.6795 20.925C11.5555 20.8836 11.4086 20.8331 11.2847 20.7872C11.225 20.7643 11.1699 20.7367 11.0827 20.7184C10.9266 20.6541 10.7429 20.5898 10.5731 20.5164C10.4858 20.4842 10.4124 20.4475 10.3343 20.42C10.2242 20.3603 10.1186 20.319 10.0038 20.2685C9.93492 20.2317 9.83851 20.1996 9.76964 20.1629C9.62732 20.0986 9.48959 20.0343 9.34727 19.9609C9.26004 19.9149 9.15904 19.8736 9.06722 19.8048C8.96163 19.7497 8.85144 19.6946 8.75044 19.6349C8.67699 19.5844 8.59435 19.5431 8.50712 19.5063C8.40612 19.4375 8.30971 19.3824 8.21329 19.3135C8.13066 19.2768 8.07097 19.2401 7.98834 19.1942C7.83683 19.0932 7.69451 18.9876 7.55219 18.8912C7.47414 18.8407 7.38692 18.781 7.29969 18.7213C7.22164 18.6708 7.139 18.6019 7.06555 18.5514C6.98291 18.4917 6.90486 18.4321 6.81763 18.3678C6.7304 18.2897 6.64317 18.23 6.54676 18.152C6.48708 18.1153 6.43199 18.0648 6.36771 18.0143H6.3769C6.25294 17.927 6.13357 17.8215 6.02798 17.7204C5.95912 17.6516 5.91321 17.6103 5.85352 17.5506C5.78925 17.5001 5.72957 17.4496 5.6607 17.3945C5.61479 17.3394 5.55052 17.2751 5.50461 17.22C5.44033 17.1649 5.39442 17.1098 5.32556 17.0639C5.27047 17.0043 5.21996 16.9446 5.16487 16.8757C5.11437 16.8252 5.06846 16.7701 5.01337 16.7012C4.96287 16.6416 4.91696 16.5865 4.85728 16.5222C4.81137 16.4717 4.76087 16.3982 4.71496 16.3477C4.66904 16.2743 4.60936 16.2192 4.56804 16.1457C4.52213 16.0952 4.47163 16.0264 4.4349 15.9621C4.39359 15.8932 4.33849 15.8244 4.30176 15.7601C4.26504 15.705 4.22372 15.6361 4.1824 15.5627C4.13649 15.503 4.10894 15.4341 4.06303 15.3699C4.02171 15.2918 3.98958 15.2138 3.92989 15.1495C3.90235 15.0944 3.87939 15.0164 3.84267 14.9475C3.79676 14.8924 3.76462 14.8006 3.73707 14.7363C3.69575 14.6583 3.6728 14.5848 3.64066 14.5205C3.61312 14.4563 3.57639 14.369 3.54884 14.2864C3.53048 14.2175 3.48916 14.1578 3.47539 14.0844C3.44325 14.0063 3.4157 13.9237 3.38816 13.8411C3.3652 13.7768 3.34684 13.7033 3.31929 13.6391C3.29175 13.5472 3.27338 13.4692 3.24584 13.3911C3.22747 13.3177 3.20452 13.2488 3.18615 13.1754C3.16779 13.0881 3.14942 13.0055 3.13565 12.9274C3.12188 12.8494 3.10811 12.7805 3.09433 12.7117C3.07597 12.6199 3.07138 12.5188 3.04842 12.4316C3.04842 12.3628 3.03465 12.2985 3.02547 12.2342C3.01169 12.1286 3.01169 12.0184 2.99333 11.9082C2.98415 11.8669 2.98415 11.8027 2.98415 11.7522C2.9566 11.5869 2.9566 11.4216 2.9566 11.2793C2.9566 11.091 2.9566 10.9304 2.98415 10.7605C2.98415 10.7054 2.98415 10.6457 2.99333 10.586C3.01169 10.485 3.01169 10.3749 3.02547 10.2693C3.03924 10.2096 3.04842 10.1269 3.0576 10.0535C3.07138 9.97085 3.08056 9.86984 3.10351 9.78721C3.11729 9.70916 3.13565 9.64489 3.15402 9.55307C3.17238 9.47043 3.18156 9.40615 3.20911 9.31433C3.22288 9.2271 3.25043 9.15824 3.28256 9.08019C3.29634 8.99296 3.3147 8.92869 3.34684 8.84605C3.36061 8.75882 3.39734 8.68996 3.42029 8.60273C3.44784 8.52927 3.47079 8.46041 3.48916 8.38695C3.5213 8.30431 3.54884 8.21708 3.59475 8.13445C3.61771 8.07476 3.64525 8.01508 3.6728 7.94162C3.70034 7.86358 3.74166 7.76717 3.79216 7.69371C3.81512 7.62944 3.84726 7.58812 3.87939 7.51925C3.92071 7.43661 3.96662 7.3402 4.02171 7.25297C4.05844 7.21625 4.0814 7.15197 4.11353 7.09688C4.15944 7.02343 4.21913 6.92701 4.26504 6.84438C4.29258 6.79388 4.32013 6.74337 4.36145 6.69287C4.41654 6.59646 4.47622 6.51842 4.54509 6.44496C4.56804 6.39905 4.60477 6.34855 4.6415 6.29346C4.69659 6.22459 4.75627 6.12818 4.82973 6.05013C4.86646 5.99963 4.88941 5.97209 4.93073 5.91699C4.9996 5.84354 5.08223 5.76549 5.14651 5.68285C5.17865 5.64613 5.21078 5.60481 5.2521 5.57267C5.31178 5.47626 5.39901 5.40739 5.48165 5.32476C5.51838 5.29262 5.55052 5.2513 5.59184 5.21916C5.66988 5.14112 5.74793 5.0493 5.82598 4.9942C5.87189 4.96207 5.90861 4.91157 5.94534 4.88402C6.03257 4.81056 6.11062 4.7417 6.21162 4.67283C6.2208 4.64988 6.24835 4.62233 6.28049 4.59479C2.45159 7.60189 0 12.2572 0 17.4863C0 26.5489 7.33182 33.8854 16.3761 33.8854C25.4204 33.8854 32.7705 26.5489 32.7705 17.4863C32.7705 12.5602 30.6036 8.14822 27.1649 5.15489H27.1695Z" fill="url(#paint3_radial_412_496)"/>
<path d="M46.9429 22.1002C46.4838 21.8523 46.1625 21.6319 45.9742 21.4575V14.167C45.9742 13.74 46.1625 13.3314 46.5343 12.9641C46.9062 12.5923 47.5857 12.4224 48.5452 12.4224C49.1742 12.4224 49.7113 12.528 50.152 12.7713C50.6065 13.0238 50.9555 13.3635 51.2171 13.7859C51.4834 14.2221 51.6717 14.7317 51.7818 15.3377C51.8966 15.9391 51.9517 16.5726 51.9517 17.2521C51.9517 18.9049 51.6808 20.1858 51.1345 21.1086C50.5974 22.0176 49.7388 22.4767 48.5681 22.4767C47.9621 22.4767 47.4112 22.3573 46.9429 22.091M47.4755 9.58056C46.6996 10.0213 46.1349 10.4666 45.7676 10.9119C45.6299 10.3197 45.2948 9.89734 44.7622 9.62647C44.2297 9.38315 43.5823 9.2546 42.8202 9.2546C42.5769 9.2546 42.3519 9.26378 42.1637 9.26837C41.9801 9.27755 41.8194 9.29592 41.6771 9.30969C41.5256 9.3556 41.3832 9.36937 41.2593 9.39233V33.1462C41.2593 33.1462 45.9375 33.6741 45.9375 30.7359V24.5105C45.9788 24.5931 46.0936 24.7217 46.291 24.8869C46.4701 25.0752 46.7363 25.2542 47.0669 25.447C47.4112 25.6215 47.8244 25.7868 48.3156 25.9383C48.8161 26.0898 49.3899 26.1632 50.0602 26.1632C50.8545 26.1632 51.6487 26.0255 52.4613 25.7455C53.251 25.4654 53.9809 24.9971 54.6283 24.3131C55.2756 23.652 55.8127 22.7292 56.2213 21.5677C56.6345 20.4107 56.8365 18.937 56.8365 17.1511C56.8365 15.6131 56.6667 14.3185 56.304 13.2625C55.9597 12.2204 55.4776 11.3665 54.8899 10.7237C54.2977 10.0856 53.6182 9.61729 52.8515 9.33724C52.0849 9.04341 51.2814 8.90109 50.4275 8.90109C49.243 8.90109 48.2605 9.13064 47.4847 9.57597" fill="#238DC1"/>
<path d="M63.5715 22.3435C63.2134 21.889 63.0206 21.3473 63.0206 20.6954C63.0206 20.1307 63.1629 19.6578 63.4476 19.2951C63.7093 18.9278 64.0674 18.6202 64.4989 18.3999C64.9351 18.1749 65.4401 18.0051 65.991 17.9178C66.5557 17.8352 67.125 17.7571 67.6988 17.7204C67.8641 17.6837 68.0202 17.6745 68.1717 17.6745H68.6584V21.182C68.6584 21.3565 68.5803 21.5585 68.4059 21.7789C68.2268 21.9992 68.0018 22.2012 67.6988 22.3895C67.405 22.5731 67.0515 22.7108 66.6705 22.8256C66.2802 22.945 65.867 23.0001 65.4401 23.0001C64.5724 23.0001 63.948 22.7751 63.5761 22.339M63.7735 9.13525C62.9747 9.27757 62.2677 9.47039 61.6525 9.7183C61.0327 9.95703 60.5323 10.2187 60.188 10.5171C59.8391 10.8247 59.6416 11.1323 59.6416 11.4399C59.6416 11.6787 59.7564 12.0322 59.9401 12.5004C60.1329 12.9687 60.6425 13.5793 61.1842 13.3176C62.0198 12.932 61.7214 13.0238 62.5982 12.7025C63.6083 12.3398 64.6137 12.202 65.6008 12.202C66.6521 12.202 67.4188 12.3994 67.8871 12.7667C68.3553 13.134 68.5941 13.7584 68.5941 14.6307V15.2642H67.8412C67.5841 15.2642 67.3132 15.278 67.0423 15.278C66.2205 15.3469 65.3161 15.4479 64.329 15.604C63.3374 15.7692 62.4284 16.0631 61.5836 16.4763C60.7297 16.8986 60.0273 17.4771 59.4534 18.2025C58.9025 18.9324 58.6224 19.8828 58.6224 21.0397C58.6224 21.9809 58.7739 22.7751 59.0953 23.4362C59.4259 24.0835 59.8345 24.6115 60.3395 24.9788C60.8537 25.3782 61.4092 25.6537 62.0198 25.8235C62.635 26.0072 63.2639 26.0852 63.8837 26.0852C65.0728 26.0852 66.0874 25.897 66.9138 25.5343C67.731 25.1716 68.4013 24.7263 68.8971 24.1937C69.021 24.7905 69.2873 25.2405 69.7097 25.5664C70.1229 25.8878 70.7564 26.0485 71.5782 26.0485C71.9685 26.0485 72.3357 26.0209 72.6938 25.9521C73.0519 25.8832 73.433 25.7592 73.8462 25.6032C73.3136 24.7814 73.0519 23.4637 73.0519 21.6503V15.1816C73.0519 14.1394 72.9464 13.2166 72.7122 12.427C72.4781 11.6282 72.097 10.9762 71.5599 10.4391C71.0273 9.92031 70.3249 9.52548 69.4572 9.26839C68.5987 9.02047 67.5565 8.89651 66.3169 8.89651C65.4309 8.89651 64.577 8.97456 63.7689 9.12606" fill="#238DC1"/>
<path d="M80.8199 9.26838C79.8695 9.5117 78.9697 9.95703 78.1204 10.586C77.2756 11.2425 76.564 12.1102 75.9855 13.212C75.4254 14.3093 75.1224 15.7233 75.1224 17.4725C75.1224 19.3043 75.4071 20.7872 75.9534 21.9258C76.4906 23.0551 77.1884 23.955 78.0148 24.5977C78.832 25.2313 79.7318 25.6628 80.6959 25.9016C81.6692 26.1219 82.5461 26.2321 83.377 26.2321C84.6212 26.2321 85.6175 26.1036 86.4301 25.8281C87.2335 25.5526 87.8579 25.2634 88.2894 24.9329C88.5878 24.7079 88.7807 24.4829 88.8679 24.2626C88.9643 24.0422 89.0148 23.8264 89.0148 23.5969C89.0148 23.225 88.8817 22.7843 88.62 22.2517C88.3537 21.7421 88.1058 21.3243 87.8487 21.0581C87.7293 21.1912 87.5549 21.3519 87.3299 21.5447C87.0958 21.7421 86.8295 21.9258 86.5035 22.1002C86.173 22.2701 85.8241 22.417 85.4017 22.5455C84.9885 22.6511 84.534 22.7016 84.0244 22.7016C83.2485 22.7016 82.5966 22.5685 82.064 22.293C81.5315 22.013 81.1045 21.6457 80.7694 21.1637C80.4526 20.6724 80.2184 20.1169 80.0669 19.4742C79.9246 18.8268 79.8649 18.1474 79.8649 17.4082C79.8649 15.9712 80.1909 14.773 80.8245 13.8594C81.4672 12.9228 82.5415 12.4637 84.0565 12.4637C84.9242 12.4637 85.7139 12.6428 86.4255 13.0468C87.1463 13.437 87.6788 13.8272 88.0415 14.2129C88.3629 13.8226 88.6291 13.3957 88.8357 12.9228C89.0423 12.4545 89.1433 12.0597 89.1433 11.7337C89.1433 11.4078 89.0561 11.1002 88.8954 10.8431C88.7164 10.5952 88.418 10.3335 87.968 10.0488C87.4447 9.70452 86.779 9.42906 85.9801 9.22247C85.1859 9.02046 84.3044 8.91028 83.3679 8.91028C82.6195 8.91028 81.761 9.03424 80.8061 9.27297" fill="#238DC1"/>
<path d="M91.6914 9.31431C91.3609 9.34645 91.1772 9.37399 91.1772 9.39695V23.147C91.1772 23.7071 91.2553 24.1845 91.4068 24.5472C91.5491 24.9191 91.7557 25.2175 92.022 25.4241C92.2837 25.6399 92.6005 25.7914 92.9631 25.874C93.335 25.9567 93.7436 25.998 94.2027 25.998C94.57 25.998 94.9143 25.9888 95.2265 25.9704C95.5525 25.9429 95.7636 25.9062 95.8509 25.8557V11.9771C95.8509 11.4032 95.7636 10.9395 95.5708 10.5906C95.3918 10.2279 95.1485 9.94787 94.85 9.75504C94.5608 9.56681 94.2303 9.42449 93.8676 9.36481C93.4957 9.28676 93.133 9.25922 92.752 9.25922C92.3709 9.25922 92.0312 9.27299 91.6868 9.3189" fill="#238DC1"/>
<path d="M102.007 2.2763C100.736 3.12563 99.9322 4.32388 99.6016 5.88023C99.4731 6.61479 99.4088 7.43199 99.4088 8.32264V25.8465C99.4088 25.8465 104.073 26.2275 104.073 23.1424V12.8264C104.073 12.8264 102.866 12.8264 105.235 12.8264C109.206 12.8264 109.426 9.85144 109.426 9.85144V23.1424C109.426 23.7025 109.523 24.1799 109.716 24.5426C109.899 24.9145 110.129 25.2129 110.427 25.4195C110.735 25.6353 111.07 25.7868 111.437 25.8694C111.795 25.9521 112.163 25.9934 112.53 25.9934C112.897 25.9934 113.264 25.975 113.604 25.9429C113.944 25.9016 114.109 25.874 114.109 25.8511V9.27757H104.073V8.15736C104.073 6.80302 104.372 5.86646 104.955 5.3844C105.533 4.87939 106.378 4.63607 107.484 4.63607C108.453 4.63607 109.321 4.78757 110.106 5.09517C110.905 5.41654 111.502 5.76546 111.878 6.15569C112.199 5.793 112.484 5.36145 112.704 4.8748C112.934 4.39734 113.049 3.97497 113.049 3.57555C113.049 2.9374 112.631 2.40025 111.814 1.9687C111.208 1.63815 110.478 1.39942 109.605 1.23414C108.733 1.07346 107.875 1 106.993 1C104.955 1 103.297 1.43155 102.012 2.27171" fill="#238DC1"/>
<path d="M122.18 9.26838C121.234 9.5117 120.33 9.95703 119.481 10.586C118.622 11.2425 117.915 12.1102 117.355 13.212C116.772 14.3093 116.492 15.7233 116.492 17.4725C116.492 19.3043 116.763 20.7872 117.314 21.9258C117.865 23.0551 118.549 23.955 119.393 24.5977C120.201 25.2313 121.101 25.6628 122.056 25.9016C123.016 26.1219 123.92 26.2321 124.733 26.2321C125.982 26.2321 126.992 26.1036 127.8 25.8281C128.594 25.5526 129.209 25.2634 129.645 24.9329C129.953 24.7079 130.136 24.4829 130.247 24.2626C130.325 24.0422 130.38 23.8264 130.38 23.5969C130.38 23.225 130.247 22.7843 129.98 22.2517C129.714 21.7421 129.457 21.3243 129.204 21.0581C129.09 21.1912 128.92 21.3519 128.686 21.5447C128.461 21.7421 128.185 21.9258 127.864 22.1002C127.533 22.2701 127.18 22.417 126.767 22.5455C126.349 22.6511 125.89 22.7016 125.385 22.7016C124.609 22.7016 123.957 22.5685 123.434 22.293C122.892 22.013 122.474 21.6457 122.134 21.1637C121.822 20.6724 121.574 20.1169 121.436 19.4742C121.294 18.8268 121.234 18.1474 121.234 17.4082C121.234 15.9712 121.56 14.773 122.199 13.8594C122.837 12.9228 123.916 12.4637 125.426 12.4637C126.298 12.4637 127.07 12.6428 127.8 13.0468C128.507 13.437 129.053 13.8272 129.406 14.2129C129.732 13.8226 129.989 13.3957 130.196 12.9228C130.412 12.4545 130.522 12.0597 130.522 11.7337C130.522 11.4078 130.435 11.1002 130.265 10.8431C130.081 10.5952 129.783 10.3335 129.342 10.0488C128.814 9.70452 128.162 9.42906 127.354 9.22247C126.542 9.02046 125.679 8.91028 124.733 8.91028C123.98 8.91028 123.135 9.03424 122.18 9.27297" fill="#238DC1"/>
<path d="M138.272 22.2104C137.822 21.9212 137.473 21.5172 137.211 21.0259C136.963 20.5485 136.789 19.9838 136.688 19.3594C136.582 18.7442 136.527 18.1244 136.527 17.5092C136.527 16.894 136.587 16.2834 136.697 15.682C136.803 15.0898 136.991 14.5572 137.257 14.0981C137.528 13.6207 137.881 13.2442 138.327 12.9412C138.781 12.6382 139.332 12.4867 140.007 12.4867C140.682 12.4867 141.21 12.6382 141.651 12.9182C142.078 13.2167 142.427 13.5747 142.688 14.0476C142.936 14.4975 143.106 15.0163 143.202 15.6407C143.28 16.2421 143.326 16.8619 143.326 17.4725C143.326 18.0831 143.28 18.7442 143.202 19.3594C143.101 19.9838 142.936 20.5439 142.688 21.0259C142.427 21.5218 142.078 21.9258 141.632 22.2104C141.182 22.518 140.613 22.6603 139.929 22.6603C139.245 22.6603 138.708 22.5226 138.267 22.2104M136.454 9.59894C135.425 10.0535 134.567 10.6824 133.896 11.4629C133.217 12.2571 132.712 13.1753 132.368 14.2267C132.033 15.2688 131.849 16.3615 131.849 17.5322C131.849 18.7029 131.996 19.7772 132.29 20.8239C132.597 21.8569 133.056 22.7751 133.699 23.5739C134.337 24.3636 135.164 24.988 136.178 25.4654C137.197 25.9337 138.446 26.1724 139.906 26.1724C141.366 26.1724 142.615 25.9383 143.643 25.4562C144.681 24.9742 145.516 24.3269 146.164 23.5234C146.82 22.7154 147.284 21.8018 147.573 20.7321C147.853 19.6808 148 18.5881 148 17.445C148 16.3018 147.853 15.2 147.573 14.1762C147.279 13.1432 146.825 12.2434 146.205 11.4491C145.567 10.6916 144.745 10.0626 143.735 9.60813C142.711 9.14444 141.481 8.91489 140.048 8.91489C138.616 8.91489 137.468 9.14444 136.444 9.60813" fill="#238DC1"/>
<path d="M94.4644 1.41318C93.6472 1.41318 92.8896 1.77587 92.3892 2.42779V2.41401L92.3755 2.45074H92.3617L92.3571 2.46452H92.3479C91.7098 3.32762 91.3608 4.35142 91.3608 5.40275C91.3608 5.6323 91.3792 5.85267 91.4068 6.07304C91.4435 6.51378 91.7557 6.87646 92.1918 6.96369C92.5132 7.02797 92.8575 7.06929 93.1835 7.06929C94.0787 7.06929 94.9464 6.81219 95.7131 6.36227V6.3485C96.5533 5.8894 97.0858 4.99875 97.0858 4.04841C97.0858 2.58847 95.8922 1.41318 94.4552 1.41318H94.4644Z" fill="#238DC1"/>
<defs>
<radialGradient id="paint0_radial_412_496" cx="0" cy="0" r="1" gradientUnits="userSpaceOnUse" gradientTransform="translate(17.6156 -0.0513135) scale(21.5961)">
<stop offset="0.5" stop-color="#63AC52"/>
<stop offset="1" stop-color="#30512F"/>
</radialGradient>
<radialGradient id="paint1_radial_412_496" cx="0" cy="0" r="1" gradientUnits="userSpaceOnUse" gradientTransform="translate(21.8761 10.3749) scale(8.8239)">
<stop offset="0.68" stop-color="#D2682D"/>
<stop offset="0.74" stop-color="#CE662C"/>
<stop offset="0.8" stop-color="#C2602A"/>
<stop offset="0.86" stop-color="#AE5728"/>
<stop offset="0.91" stop-color="#934B24"/>
<stop offset="0.97" stop-color="#6F3B1F"/>
<stop offset="1" stop-color="#5B321D"/>
</radialGradient>
<radialGradient id="paint2_radial_412_496" cx="0" cy="0" r="1" gradientUnits="userSpaceOnUse" gradientTransform="translate(21.4718 12.6832) scale(23.3255 23.3257)">
<stop offset="0.46" stop-color="#4F86BD"/>
<stop offset="0.54" stop-color="#4C81B7"/>
<stop offset="0.66" stop-color="#4575A6"/>
<stop offset="0.79" stop-color="#3A618B"/>
<stop offset="0.93" stop-color="#2A4666"/>
<stop offset="1" stop-color="#223751"/>
</radialGradient>
<radialGradient id="paint3_radial_412_496" cx="0" cy="0" r="1" gradientUnits="userSpaceOnUse" gradientTransform="translate(21.5042 11.6971) scale(22.7713)">
<stop offset="0.46" stop-color="#4677AE"/>
<stop offset="0.59" stop-color="#4474AA"/>
<stop offset="0.7" stop-color="#416DA0"/>
<stop offset="0.8" stop-color="#3A6290"/>
<stop offset="0.89" stop-color="#315178"/>
<stop offset="0.98" stop-color="#263C5A"/>
<stop offset="1" stop-color="#233752"/>
</radialGradient>
</defs>
</svg>
